name rise30.9205peak61.366fall85.3838.mot
datacolumns 19
datarows 17
range 18.44160100000000 18.46826600000000
endheader
time	ground_force1_vx	ground_force1_vy	ground_force1_vz	ground_force1_px	ground_force1_py	ground_force1_pz	ground_force2_vx	ground_force2_vy	ground_force2_vz	ground_force2_px	ground_force2_py	ground_force2_pz	ground_torque1_x	ground_torque1_y	ground_torque1_z	ground_torque2_x	ground_torque2_y	ground_torque2_z	
18.44160100000000	-7.89825100000000	42.45969800000000	-9.27426800000000	0.32798300000000	0.00000000000000	0.09977100000000	-49.16201300000000	768.22750799999994	-51.69525800000000	0.13363100000000	0.00000000000000	-0.07270400000000	0.00000000000000	-6.13578700000000	0.00000000000000	0.00000000000000	-18.67894100000000	0.00000000000000	
18.44326600000000	-8.63840300000000	49.61366900000000	-10.38470600000000	0.33325000000000	0.00000000000000	0.10069800000000	-49.66835200000000	765.39423299999999	-51.34993800000000	0.13292300000000	0.00000000000000	-0.07263500000000	0.00000000000000	-6.95283400000000	0.00000000000000	0.00000000000000	-18.58872900000000	0.00000000000000	
18.44493600000000	-9.22239000000000	56.82081900000000	-11.37799400000000	0.33818000000000	0.00000000000000	0.10154000000000	-50.19104100000000	762.48204199999998	-50.98886000000000	0.13222300000000	0.00000000000000	-0.07256300000000	0.00000000000000	-7.70948400000000	0.00000000000000	0.00000000000000	-18.50002400000000	0.00000000000000	
18.44659900000000	-9.62852200000000	63.98651600000000	-12.22960000000000	0.34281100000000	0.00000000000000	0.10231000000000	-50.72996300000000	759.48936400000002	-50.61188900000000	0.13153100000000	0.00000000000000	-0.07248800000000	0.00000000000000	-8.38789600000000	0.00000000000000	0.00000000000000	-18.41282700000000	0.00000000000000	
18.44826100000000	-9.84404700000000	71.04066600000000	-12.92361200000000	0.34717500000000	0.00000000000000	0.10301800000000	-51.28491700000000	756.41450299999997	-50.21889800000000	0.13084800000000	0.00000000000000	-0.07241000000000	0.00000000000000	-8.97564800000000	0.00000000000000	0.00000000000000	-18.32712300000000	0.00000000000000	
18.44992800000000	-9.86499700000000	77.93973699999999	-13.45279900000000	0.35129600000000	0.00000000000000	0.10367200000000	-51.85560900000000	753.25563899999997	-49.80975800000000	0.13017200000000	0.00000000000000	-0.07232800000000	0.00000000000000	-9.46596000000000	0.00000000000000	0.00000000000000	-18.24288000000000	0.00000000000000	
18.45159500000000	-9.69535300000000	84.66627000000000	-13.81794500000000	0.35519700000000	0.00000000000000	0.10428000000000	-52.44165500000000	750.01083500000004	-49.38434700000000	0.12950500000000	0.00000000000000	-0.07224300000000	0.00000000000000	-9.85741700000000	0.00000000000000	0.00000000000000	-18.16004900000000	0.00000000000000	
18.45327500000000	-9.34569000000000	91.22631500000000	-14.02665100000000	0.35889700000000	0.00000000000000	0.10484600000000	-53.04257300000000	746.67804400000000	-48.94254700000000	0.12884700000000	0.00000000000000	-0.07215500000000	0.00000000000000	-10.15330500000000	0.00000000000000	0.00000000000000	-18.07856700000000	0.00000000000000	
18.45492700000000	-8.83153000000000	97.64537000000000	-14.09177400000000	0.36241000000000	0.00000000000000	0.10537600000000	-53.65778800000000	743.25511400000005	-48.48424800000000	0.12819800000000	0.00000000000000	-0.07206400000000	0.00000000000000	-10.36065700000000	0.00000000000000	0.00000000000000	-17.99835100000000	0.00000000000000	
18.45660200000000	-8.17156300000000	103.96342700000000	-14.02970900000000	0.36575000000000	0.00000000000000	0.10587400000000	-54.28662500000000	739.73979599999996	-48.00934800000000	0.12755800000000	0.00000000000000	-0.07196900000000	0.00000000000000	-10.48916100000000	0.00000000000000	0.00000000000000	-17.91930600000000	0.00000000000000	
18.45826600000000	-7.38592900000000	110.22967600000000	-13.85868700000000	0.36892900000000	0.00000000000000	0.10634300000000	-54.92831200000000	736.12975200000005	-47.51775400000000	0.12692600000000	0.00000000000000	-0.07187200000000	0.00000000000000	-10.55003500000000	0.00000000000000	0.00000000000000	-17.84131800000000	0.00000000000000	
18.45993200000000	-6.49467300000000	116.49736700000000	-13.59720500000000	0.37195700000000	0.00000000000000	0.10678700000000	-55.58197700000000	732.42256299999997	-47.00938400000000	0.12630400000000	0.00000000000000	-0.07177100000000	0.00000000000000	-10.55496000000000	0.00000000000000	0.00000000000000	-17.76425800000000	0.00000000000000	
18.46160100000000	-5.51647100000000	122.81921500000000	-13.26271700000000	0.37484100000000	0.00000000000000	0.10720800000000	-56.24664900000000	728.61574099999996	-46.48417000000000	0.12569100000000	0.00000000000000	-0.07166700000000	0.00000000000000	-10.51516700000000	0.00000000000000	0.00000000000000	-17.68798100000000	0.00000000000000	
18.46326500000000	-4.46769000000000	129.24359999999999	-12.87061800000000	0.37759100000000	0.00000000000000	0.10760800000000	-56.92125800000000	724.70673599999998	-45.94205700000000	0.12508600000000	0.00000000000000	-0.07155900000000	0.00000000000000	-10.44069700000000	0.00000000000000	0.00000000000000	-17.61232800000000	0.00000000000000	
18.46492900000000	-3.36177800000000	135.81173400000000	-12.43357100000000	0.38021200000000	0.00000000000000	0.10798900000000	-57.60463500000000	720.69294700000000	-45.38300800000000	0.12449100000000	0.00000000000000	-0.07144900000000	0.00000000000000	-10.33989800000000	0.00000000000000	0.00000000000000	-17.53712600000000	0.00000000000000	
18.46659700000000	-2.20898900000000	142.55582999999999	-11.96115400000000	0.38271200000000	0.00000000000000	0.10835200000000	-58.29551300000000	716.57173699999998	-44.80700300000000	0.12390400000000	0.00000000000000	-0.07133500000000	0.00000000000000	-10.21912200000000	0.00000000000000	0.00000000000000	-17.46218600000000	0.00000000000000	
18.46826600000000	-1.01639800000000	149.49822900000001	-11.45979800000000	0.38509400000000	0.00000000000000	0.10870000000000	-58.99252800000000	712.34043899999995	-44.21404400000000	0.12332600000000	0.00000000000000	-0.07121900000000	0.00000000000000	-10.08264000000000	0.00000000000000	0.00000000000000	-17.38730700000000	0.00000000000000	
